<svg width="40" height="40" viewBox="0 0 40 40" fill="none" xmlns="http://www.w3.org/2000/svg">
<path d="M12 0.5H28C34.3513 0.5 39.5 5.64873 39.5 12V28C39.5 34.3513 34.3513 39.5 28 39.5H12C5.64873 39.5 0.5 34.3513 0.5 28V12C0.5 5.64873 5.64873 0.5 12 0.5Z" stroke="#D5D7DA"/>
<path d="M17 12.5H13.8333C13.3666 12.5 13.1333 12.5 12.955 12.5908C12.7982 12.6707 12.6707 12.7982 12.5908 12.955C12.5 13.1333 12.5 13.3666 12.5 13.8333V17C12.5 17.4667 12.5 17.7001 12.5908 17.8783C12.6707 18.0351 12.7982 18.1626 12.955 18.2425C13.1333 18.3333 13.3666 18.3333 13.8333 18.3333H17C17.4667 18.3333 17.7001 18.3333 17.8783 18.2425C18.0351 18.1626 18.1626 18.0351 18.2425 17.8783C18.3333 17.7001 18.3333 17.4667 18.3333 17V13.8333C18.3333 13.3666 18.3333 13.1333 18.2425 12.955C18.1626 12.7982 18.0351 12.6707 17.8783 12.5908C17.7001 12.5 17.4667 12.5 17 12.5Z" stroke="#0A0D12" stroke-width="1.66667" stroke-linecap="round" stroke-linejoin="round"/>
<path d="M26.1667 12.5H23C22.5333 12.5 22.2999 12.5 22.1217 12.5908C21.9649 12.6707 21.8374 12.7982 21.7575 12.955C21.6667 13.1333 21.6667 13.3666 21.6667 13.8333V17C21.6667 17.4667 21.6667 17.7001 21.7575 17.8783C21.8374 18.0351 21.9649 18.1626 22.1217 18.2425C22.2999 18.3333 22.5333 18.3333 23 18.3333H26.1667C26.6334 18.3333 26.8667 18.3333 27.045 18.2425C27.2018 18.1626 27.3293 18.0351 27.4092 17.8783C27.5 17.7001 27.5 17.4667 27.5 17V13.8333C27.5 13.3666 27.5 13.1333 27.4092 12.955C27.3293 12.7982 27.2018 12.6707 27.045 12.5908C26.8667 12.5 26.6334 12.5 26.1667 12.5Z" stroke="#0A0D12" stroke-width="1.66667" stroke-linecap="round" stroke-linejoin="round"/>
<path d="M26.1667 21.6667H23C22.5333 21.6667 22.2999 21.6667 22.1217 21.7575C21.9649 21.8374 21.8374 21.9649 21.7575 22.1217C21.6667 22.2999 21.6667 22.5333 21.6667 23V26.1667C21.6667 26.6334 21.6667 26.8667 21.7575 27.045C21.8374 27.2018 21.9649 27.3293 22.1217 27.4092C22.2999 27.5 22.5333 27.5 23 27.5H26.1667C26.6334 27.5 26.8667 27.5 27.045 27.4092C27.2018 27.3293 27.3293 27.2018 27.4092 27.045C27.5 26.8667 27.5 26.6334 27.5 26.1667V23C27.5 22.5333 27.5 22.2999 27.4092 22.1217C27.3293 21.9649 27.2018 21.8374 27.045 21.7575C26.8667 21.6667 26.6334 21.6667 26.1667 21.6667Z" stroke="#0A0D12" stroke-width="1.66667" stroke-linecap="round" stroke-linejoin="round"/>
<path d="M17 21.6667H13.8333C13.3666 21.6667 13.1333 21.6667 12.955 21.7575C12.7982 21.8374 12.6707 21.9649 12.5908 22.1217C12.5 22.2999 12.5 22.5333 12.5 23V26.1667C12.5 26.6334 12.5 26.8667 12.5908 27.045C12.6707 27.2018 12.7982 27.3293 12.955 27.4092C13.1333 27.5 13.3666 27.5 13.8333 27.5H17C17.4667 27.5 17.7001 27.5 17.8783 27.4092C18.0351 27.3293 18.1626 27.2018 18.2425 27.045C18.3333 26.8667 18.3333 26.6334 18.3333 26.1667V23C18.3333 22.5333 18.3333 22.2999 18.2425 22.1217C18.1626 21.9649 18.0351 21.8374 17.8783 21.7575C17.7001 21.6667 17.4667 21.6667 17 21.6667Z" stroke="#0A0D12" stroke-width="1.66667" stroke-linecap="round" stroke-linejoin="round"/>
</svg>
