<svg width="196" height="40" viewBox="0 0 196 40" fill="none" xmlns="http://www.w3.org/2000/svg">
<path d="M20 0.5C30.7696 0.5 39.5 9.23045 39.5 20C39.5 30.7696 30.7696 39.5 20 39.5C9.23045 39.5 0.5 30.7696 0.5 20C0.5 9.23045 9.23045 0.5 20 0.5Z" stroke="#D5D7DA"/>
<path d="M24.8938 21.302L25.4637 17.6809H21.953V15.3272C21.953 14.3371 22.4431 13.3696 24.0104 13.3696H25.629V10.286C24.6864 10.1357 23.734 10.0544 22.7794 10.0427C19.8899 10.0427 18.0034 11.7797 18.0034 14.9199V17.6809H14.8005V21.302H18.0034V30.0605H21.953V21.302H24.8938Z" fill="#0A0D12"/>
<path d="M72 0.5C82.7696 0.5 91.5 9.23045 91.5 20C91.5 30.7696 82.7696 39.5 72 39.5C61.2304 39.5 52.5 30.7696 52.5 20C52.5 9.23045 61.2304 0.5 72 0.5Z" stroke="#D5D7DA"/>
<path d="M68.6713 20.0514C68.6713 18.2089 70.1641 16.7148 72.0061 16.7148C73.8481 16.7148 75.3417 18.2089 75.3417 20.0514C75.3417 21.8939 73.8481 23.3879 72.0061 23.3879C70.1641 23.3879 68.6713 21.8939 68.6713 20.0514ZM66.8681 20.0514C66.8681 22.8899 69.1684 25.1908 72.0061 25.1908C74.8438 25.1908 77.1441 22.8899 77.1441 20.0514C77.1441 17.2128 74.8438 14.9119 72.0061 14.9119C69.1684 14.9119 66.8681 17.2128 66.8681 20.0514ZM76.1467 14.7081C76.1466 14.9457 76.217 15.1779 76.3488 15.3755C76.4807 15.5731 76.6682 15.7271 76.8875 15.8181C77.1069 15.9091 77.3483 15.933 77.5812 15.8867C77.8142 15.8405 78.0282 15.7262 78.1962 15.5582C78.3641 15.3903 78.4786 15.1764 78.525 14.9434C78.5714 14.7104 78.5478 14.4689 78.457 14.2494C78.3662 14.0299 78.2123 13.8423 78.0149 13.7102C77.8175 13.5782 77.5854 13.5077 77.3479 13.5076H77.3475C77.0291 13.5077 76.7239 13.6342 76.4988 13.8593C76.2736 14.0844 76.147 14.3897 76.1467 14.7081ZM67.9637 28.1984C66.9881 28.1539 66.4579 27.9914 66.1055 27.8541C65.6384 27.6721 65.305 27.4555 64.9546 27.1054C64.6041 26.7553 64.3872 26.4222 64.2061 25.9549C64.0688 25.6026 63.9063 25.0721 63.8619 24.0962C63.8134 23.0412 63.8037 22.7243 63.8037 20.0514C63.8037 17.3786 63.8142 17.0626 63.8619 16.0067C63.9064 15.0308 64.0701 14.5013 64.2061 14.148C64.388 13.6807 64.6046 13.3473 64.9546 12.9967C65.3046 12.6462 65.6376 12.4292 66.1055 12.248C66.4577 12.1106 66.9881 11.9481 67.9637 11.9037C69.0184 11.8552 69.3352 11.8455 72.0061 11.8455C74.677 11.8455 74.9941 11.856 76.0497 11.9037C77.0253 11.9482 77.5546 12.1119 77.9079 12.248C78.375 12.4292 78.7084 12.6466 79.0588 12.9967C79.4093 13.3468 79.6254 13.6807 79.8073 14.148C79.9446 14.5003 80.1071 15.0308 80.1515 16.0067C80.2 17.0626 80.2097 17.3786 80.2097 20.0514C80.2097 22.7243 80.2 23.0403 80.1515 24.0962C80.107 25.0721 79.9437 25.6025 79.8073 25.9549C79.6254 26.4222 79.4088 26.7556 79.0588 27.1054C78.7088 27.4551 78.375 27.6721 77.9079 27.8541C77.5557 27.9915 77.0253 28.154 76.0497 28.1984C74.995 28.2469 74.6782 28.2566 72.0061 28.2566C69.334 28.2566 69.0181 28.2469 67.9637 28.1984ZM67.8808 10.1031C66.8156 10.1516 66.0877 10.3206 65.4521 10.568C64.7938 10.8235 64.2365 11.1663 63.6796 11.7225C63.1227 12.2786 62.7809 12.837 62.5255 13.4955C62.2781 14.1317 62.1092 14.8594 62.0607 15.9249C62.0114 16.9921 62.0001 17.3333 62.0001 20.0514C62.0001 22.7695 62.0114 23.1106 62.0607 24.1778C62.1092 25.2434 62.2781 25.971 62.5255 26.6073C62.7809 27.2654 63.1228 27.8244 63.6796 28.3803C64.2364 28.9362 64.7938 29.2785 65.4521 29.5348C66.0889 29.7822 66.8156 29.9511 67.8808 29.9996C68.9483 30.0482 69.2888 30.0603 72.0061 30.0603C74.7234 30.0603 75.0645 30.049 76.1314 29.9996C77.1966 29.9511 77.924 29.7822 78.5601 29.5348C79.218 29.2785 79.7757 28.9365 80.3326 28.3803C80.8895 27.8241 81.2306 27.2654 81.4867 26.6073C81.7341 25.971 81.9038 25.2433 81.9515 24.1778C82 23.1098 82.0113 22.7695 82.0113 20.0514C82.0113 17.3333 82 16.9921 81.9515 15.9249C81.903 14.8593 81.7341 14.1313 81.4867 13.4955C81.2306 12.8374 80.8886 12.2795 80.3326 11.7225C79.7766 11.1654 79.218 10.8235 78.5609 10.568C77.924 10.3206 77.1966 10.1508 76.1322 10.1031C75.0653 10.0546 74.7242 10.0425 72.0069 10.0425C69.2896 10.0425 68.9483 10.0538 67.8808 10.1031Z" fill="#0A0D12"/>
<path d="M68.6713 20.0514C68.6713 18.2089 70.1641 16.7148 72.0061 16.7148C73.8481 16.7148 75.3417 18.2089 75.3417 20.0514C75.3417 21.8939 73.8481 23.3879 72.0061 23.3879C70.1641 23.3879 68.6713 21.8939 68.6713 20.0514ZM66.8681 20.0514C66.8681 22.8899 69.1684 25.1908 72.0061 25.1908C74.8438 25.1908 77.1441 22.8899 77.1441 20.0514C77.1441 17.2128 74.8438 14.9119 72.0061 14.9119C69.1684 14.9119 66.8681 17.2128 66.8681 20.0514ZM76.1467 14.7081C76.1466 14.9457 76.217 15.1779 76.3488 15.3755C76.4807 15.5731 76.6682 15.7271 76.8875 15.8181C77.1069 15.9091 77.3483 15.933 77.5812 15.8867C77.8142 15.8405 78.0282 15.7262 78.1962 15.5582C78.3641 15.3903 78.4786 15.1764 78.525 14.9434C78.5714 14.7104 78.5478 14.4689 78.457 14.2494C78.3662 14.0299 78.2123 13.8423 78.0149 13.7102C77.8175 13.5782 77.5854 13.5077 77.3479 13.5076H77.3475C77.0291 13.5077 76.7239 13.6342 76.4988 13.8593C76.2736 14.0844 76.147 14.3897 76.1467 14.7081ZM67.9637 28.1984C66.9881 28.1539 66.4579 27.9914 66.1055 27.8541C65.6384 27.6721 65.305 27.4555 64.9546 27.1054C64.6041 26.7553 64.3872 26.4222 64.2061 25.9549C64.0688 25.6026 63.9063 25.0721 63.8619 24.0962C63.8134 23.0412 63.8037 22.7243 63.8037 20.0514C63.8037 17.3786 63.8142 17.0626 63.8619 16.0067C63.9064 15.0308 64.0701 14.5013 64.2061 14.148C64.388 13.6807 64.6046 13.3473 64.9546 12.9967C65.3046 12.6462 65.6376 12.4292 66.1055 12.248C66.4577 12.1106 66.9881 11.9481 67.9637 11.9037C69.0184 11.8552 69.3352 11.8455 72.0061 11.8455C74.677 11.8455 74.9941 11.856 76.0497 11.9037C77.0253 11.9482 77.5546 12.1119 77.9079 12.248C78.375 12.4292 78.7084 12.6466 79.0588 12.9967C79.4093 13.3468 79.6254 13.6807 79.8073 14.148C79.9446 14.5003 80.1071 15.0308 80.1515 16.0067C80.2 17.0626 80.2097 17.3786 80.2097 20.0514C80.2097 22.7243 80.2 23.0403 80.1515 24.0962C80.107 25.0721 79.9437 25.6025 79.8073 25.9549C79.6254 26.4222 79.4088 26.7556 79.0588 27.1054C78.7088 27.4551 78.375 27.6721 77.9079 27.8541C77.5557 27.9915 77.0253 28.154 76.0497 28.1984C74.995 28.2469 74.6782 28.2566 72.0061 28.2566C69.334 28.2566 69.0181 28.2469 67.9637 28.1984ZM67.8808 10.1031C66.8156 10.1516 66.0877 10.3206 65.4521 10.568C64.7938 10.8235 64.2365 11.1663 63.6796 11.7225C63.1227 12.2786 62.7809 12.837 62.5255 13.4955C62.2781 14.1317 62.1092 14.8594 62.0607 15.9249C62.0114 16.9921 62.0001 17.3333 62.0001 20.0514C62.0001 22.7695 62.0114 23.1106 62.0607 24.1778C62.1092 25.2434 62.2781 25.971 62.5255 26.6073C62.7809 27.2654 63.1228 27.8244 63.6796 28.3803C64.2364 28.9362 64.7938 29.2785 65.4521 29.5348C66.0889 29.7822 66.8156 29.9511 67.8808 29.9996C68.9483 30.0482 69.2888 30.0603 72.0061 30.0603C74.7234 30.0603 75.0645 30.049 76.1314 29.9996C77.1966 29.9511 77.924 29.7822 78.5601 29.5348C79.218 29.2785 79.7757 28.9365 80.3326 28.3803C80.8895 27.8241 81.2306 27.2654 81.4867 26.6073C81.7341 25.971 81.9038 25.2433 81.9515 24.1778C82 23.1098 82.0113 22.7695 82.0113 20.0514C82.0113 17.3333 82 16.9921 81.9515 15.9249C81.903 14.8593 81.7341 14.1313 81.4867 13.4955C81.2306 12.8374 80.8886 12.2795 80.3326 11.7225C79.7766 11.1654 79.218 10.8235 78.5609 10.568C77.924 10.3206 77.1966 10.1508 76.1322 10.1031C75.0653 10.0546 74.7242 10.0425 72.0069 10.0425C69.2896 10.0425 68.9483 10.0538 67.8808 10.1031Z" fill="#0A0D12"/>
<path d="M124 0.5C134.77 0.5 143.5 9.23045 143.5 20C143.5 30.7696 134.77 39.5 124 39.5C113.23 39.5 104.5 30.7696 104.5 20C104.5 9.23045 113.23 0.5 124 0.5Z" stroke="#D5D7DA"/>
<path d="M119.399 28.1054V17.3002H115.811V28.1054H119.399H119.399ZM117.605 15.8252C118.857 15.8252 119.635 14.9955 119.635 13.9586C119.612 12.8981 118.857 12.0916 117.629 12.0916C116.401 12.0916 115.599 12.8981 115.599 13.9585C115.599 14.9954 116.378 15.8251 117.582 15.8251H117.605L117.605 15.8252ZM121.385 28.1054H124.973V22.072C124.973 21.7495 124.996 21.4261 125.091 21.1958C125.351 20.5503 125.941 19.8821 126.932 19.8821C128.23 19.8821 128.75 20.8729 128.75 22.3256V28.1054H132.338V21.9101C132.338 18.5913 130.568 17.0469 128.207 17.0469C126.272 17.0469 125.422 18.1297 124.949 18.8671H124.973V17.3006H121.385C121.432 18.3143 121.385 28.1058 121.385 28.1058L121.385 28.1054Z" fill="#0A0D12"/>
<path d="M176 0.5C186.77 0.5 195.5 9.23045 195.5 20C195.5 30.7696 186.77 39.5 176 39.5C165.23 39.5 156.5 30.7696 156.5 20C156.5 9.23045 165.23 0.5 176 0.5Z" stroke="#D5D7DA"/>
<path d="M182.276 14.2524C182.143 14.1838 182.014 14.1086 181.889 14.0271C181.525 13.7865 181.191 13.503 180.895 13.1826C180.154 12.3344 179.877 11.4739 179.775 10.8715H179.779C179.694 10.3714 179.729 10.0479 179.734 10.0479H176.358V23.1038C176.358 23.2791 176.358 23.4523 176.35 23.6235C176.35 23.6448 176.348 23.6645 176.347 23.6874C176.347 23.6968 176.347 23.7067 176.345 23.7165C176.345 23.7189 176.345 23.7214 176.345 23.7239C176.309 24.1923 176.159 24.6448 175.908 25.0416C175.656 25.4384 175.311 25.7673 174.903 25.9994C174.477 26.2416 173.995 26.3686 173.506 26.368C171.932 26.368 170.658 25.0852 170.658 23.5011C170.658 21.9169 171.932 20.6341 173.506 20.6341C173.803 20.6339 174.099 20.6807 174.382 20.773L174.387 17.3351C173.527 17.2241 172.654 17.2924 171.822 17.5358C170.99 17.7791 170.218 18.1922 169.554 18.7489C168.972 19.2546 168.483 19.8579 168.108 20.5318C167.965 20.7775 167.428 21.7649 167.363 23.3675C167.322 24.2772 167.595 25.2196 167.725 25.6091V25.6173C167.807 25.8466 168.124 26.6293 168.642 27.2891C169.059 27.8183 169.552 28.2833 170.104 28.6689V28.6607L170.112 28.6689C171.747 29.7796 173.559 29.7067 173.559 29.7067C173.873 29.694 174.924 29.7067 176.117 29.1411C177.441 28.5141 178.195 27.5799 178.195 27.5799C178.676 27.0217 179.059 26.3855 179.327 25.6988C179.632 24.8956 179.734 23.9323 179.734 23.5473V16.6209C179.775 16.6454 180.321 17.0063 180.321 17.0063C180.321 17.0063 181.107 17.51 182.333 17.8381C183.213 18.0715 184.398 18.1207 184.398 18.1207V14.7688C183.983 14.8139 183.139 14.6828 182.276 14.2524Z" fill="#0A0D12"/>
</svg>
